<svg xmlns="http://www.w3.org/2000/svg" xml:space="preserve" style="enable-background:new 0 0 4000 4000" viewBox="0 0 4000 4000">
  <style>
    .st91{fill:#575756}.st92{fill:#62ffaa}.st93{fill:#dedee1}
  </style>
  <g id="Calque_2">
    <path d="M2178 3126c-8 0-14-6-14-14 0-16-13-28-29-28a14 14 0 1 1 0-29c31 0 57 26 57 57 0 8-6 14-14 14" class="st91"/>
    <path d="M2876 3295c-42 2-89-24-89-24l-113-45-18 25c-9 11-24 15-36 9-16-8-20-28-10-42l12-16c-15-9-29-18-43-29l-16 21c-9 12-24 16-36 10-16-9-20-29-10-42l18-25-29-31c-35-41-78-82-103-78l-18 5c-11 27-42 53-84 67s-83 10-108-7c-8-5-17-9-27-9h-2v141s-84 71-15 169h648c8 0 17-3 23-9 3-4 7-7 12-8 23-9 108-29 106-46-3-20-20-37-62-36" class="st92"/>
    <path d="M2522 3201c-12-9-14-27-5-39l25-34a28 28 0 1 1 45 34l-25 33a29 29 0 0 1-40 6m93 56c-12-9-14-27-5-39l25-34a28 28 0 1 1 45 34l-25 34c-9 12-27 15-40 5" class="st91"/>
    <path d="M2937 3331c3 16-82 37-106 45l-11 8a33 33 0 0 1-24 10h-647c-19 24-15 42-7 53s22 17 36 17h556c63 0 125-14 181-41l7-4c18-8 15-88 15-88" class="st93"/>
    <path d="M2206 3351a14 14 0 0 1-10-24l84-84a14 14 0 1 1 20 20l-84 84c-3 3-6 4-10 4m70 0a14 14 0 0 1-10-24l57-56a14 14 0 1 1 20 20l-57 56c-2 3-6 4-10 4m71 0a14 14 0 0 1-10-24l28-28a14 14 0 1 1 20 20l-28 28c-3 3-7 4-10 4m14-281h-5a162 162 0 0 1-108 38v18c0 16 13 28 28 28h57c15 0 28-12 28-28v-56zm576 261c-2-20-19-37-61-36s-89-24-89-24l-46-18a140 140 0 0 0-54 141h109c9 0 17-3 23-9l12-9c24-8 108-28 106-45m-1068-198c-8 0-14-6-14-14 0-31 26-57 57-57a14 14 0 1 1 0 29c-16 0-29 12-29 28 0 8-6 14-14 14" class="st91"/>
    <path d="M1171 3302c-42-1-59 15-61 35-2 18 83 38 106 46l12 9c6 6 14 9 23 9h647c70-98-15-169-15-169v-141h-2c-9 0-19 4-27 9-24 17-66 20-108 7-42-14-73-40-83-67l-18-5c-26-4-68 37-104 78l-29 31 18 24c11 14 7 34-9 43-13 6-28 1-37-10l-15-21-44 29 12 16c11 13 7 33-9 42-13 6-28 2-37-10l-18-24-113 45s-47 25-89 24" class="st92"/>
    <path d="M1525 3208c-13 9-30 7-40-6l-25-33a28 28 0 1 1 45-34l25 33c10 13 7 30-5 40m-93 56c-13 9-30 7-40-5l-25-34a28 28 0 1 1 45-34l25 34c10 12 7 30-5 39" class="st91"/>
    <path d="M1110 3337s-2 81 15 89l7 4c57 27 119 41 181 41h557c13 0 27-6 35-17s12-29-7-53h-647a34 34 0 0 1-24-10l-11-8c-23-9-109-29-106-46" class="st93"/>
    <path d="M1841 3358c-3 0-7-1-10-4l-84-84a14 14 0 1 1 20-20l84 84a14 14 0 0 1-10 24m-70 0c-4 0-7-1-10-4l-56-56a14 14 0 1 1 20-20l56 56a14 14 0 0 1-10 24m-70 0c-4 0-8-1-10-4l-29-28a14 14 0 1 1 20-20l29 28a14 14 0 0 1-10 24m-15-281v56c0 16 13 28 29 28h56c15 0 28-12 28-28v-18a168 168 0 0 1-108-38h-5zm-576 260c-2 17 83 37 106 46l12 9c6 6 14 9 23 9h109a141 141 0 0 0-54-141l-46 18s-47 25-89 24-59 16-61 35" class="st91"/>
  </g>
</svg>
