<svg xmlns="http://www.w3.org/2000/svg" xml:space="preserve" id="Calque_1" x="0" y="0" style="enable-background:new 0 0 4000 4000" version="1.1" viewBox="0 0 4000 4000">
  <style>
    .st87{fill:#f2f2f2}.st88{opacity:.73;fill:#05293d;enable-background:new}
  </style>
  <path d="M1356 1294c-45 8-76 39-87 75-3 12-6 28-8 45l173-119c-32-4-60-5-78-1z" class="st87"/>
  <path d="M1356 1294c-45 8-76 39-87 75-3 12-6 28-8 45l173-119c-32-4-60-5-78-1z" class="st88"/>
  <path d="M1648 1356c-14-9-35-18-59-27l-311 215 7 15a183 183 0 0 0 109 83l42 8s88 12 154-29c58-36 96-123 104-171 4-21-9-69-46-94z" class="st87"/>
  <path d="M1648 1356c-14-9-35-18-59-27l-311 215 7 15a183 183 0 0 0 109 83l42 8s88 12 154-29c58-36 96-123 104-171 4-21-9-69-46-94z" class="st88"/>
  <path d="m1499 1305-239 166 4 27 268-185-33-8z" class="st87"/>
  <path d="m1499 1305-239 166 4 27 268-185-33-8z" class="st88"/>
  <path d="M1972 1415c-44 11-72 51-76 72s-6 51-2 82l219-151c-54-8-109-10-141-3z" class="st87"/>
  <path d="M1972 1415c-44 11-72 51-76 72s-6 51-2 82l219-151c-54-8-109-10-141-3z" class="st88"/>
  <path d="m2178 1429-275 190 8 24 298-206-31-8z" class="st87"/>
  <path d="m2178 1429-275 190 8 24 298-206-31-8z" class="st88"/>
  <path d="M2322 1561a109 109 0 0 0-60-104l-328 227a256 256 0 0 0 133 80l42 8s30 2 61-5c24-5 47-16 70-34 53-43 79-129 82-172z" class="st87"/>
  <path d="M2322 1561a109 109 0 0 0-60-104l-328 227a256 256 0 0 0 133 80l42 8s30 2 61-5c24-5 47-16 70-34 53-43 79-129 82-172z" class="st88"/>
  <path d="m1434 1295-173 119c-2 17-2 37-1 57l239-166c-22-4-44-8-65-10zm98 18-268 185c3 16 7 32 14 46l311-215-57-16zm581 105-219 151c2 17 5 34 9 50l275-190-65-11zm96 19-298 206c6 15 13 28 22 40v1l329-227c-13-7-31-14-53-20zm-954-143c16 1 33-1 32-7 0-5-14-10-32-12-18-1-33 2-33 7 0 6 15 11 33 12zm1112 184c-18-5-33-4-34 1 0 6 13 13 31 17 16 4 33 4 33-1s-13-13-30-17z" class="st87"/>
  <path d="M2092 1380c-115-15-225 18-286 8-62-10-117-69-265-108-179-48-340-40-340-40l-7 72s30 12 32 50c4 51-17 139 18 199 40 70 90 92 142 105 51 12 169 26 246-35 30-23 56-57 77-90 23-38 42-80 61-90 6-4 15-1 25 1 13 3 25 5 32 16 16 26 16 77 27 125 8 31 23 64 40 92 46 73 173 108 220 113 52 6 112-1 156-41 22-19 39-45 51-73 19-40 30-83 43-112 17-40 44-36 44-36l23-72s-149-58-339-84zm-502 241c-66 41-154 29-154 29l-43-8c1 0-28-9-55-26a168 168 0 0 1-60-72 205 205 0 0 1-18-73 321 321 0 0 1 9-102c12-36 42-67 87-75 18-4 46-3 78 1a770 770 0 0 1 155 34c24 8 45 18 59 27 37 25 50 73 46 94-8 48-46 135-104 171zm-368-339c0-5 15-9 33-7s32 7 32 12c1 5-16 8-33 7s-32-6-32-12zm1142 214c-18-4-31-11-31-17 1-5 16-6 34-2 17 5 30 12 30 18 0 5-17 5-33 1zm-194 271c-31 7-61 5-61 5l-42-8-5-1c-17-4-87-26-128-79l-1-1c-9-11-16-25-22-40a237 237 0 0 1-17-74c-3-31-2-61 2-82s33-61 76-72c32-7 87-5 141 3a825 825 0 0 1 96 19 289 289 0 0 1 58 23c39 23 57 63 55 101-3 43-29 129-82 172-23 18-46 29-70 34z" style="fill:#05293d"/>
</svg>
