<svg xmlns="http://www.w3.org/2000/svg" xml:space="preserve" style="enable-background:new 0 0 4000 4000" viewBox="0 0 4000 4000">
  
  <g id="Calque_2">
    <path d="M1148 1290c184 39 330-14 330-14 91-34 169-39 169-39l-250-62a600 600 0 0 0-249 115z" style="fill:#146f84"/>
    <path d="M1460 1082s209-107 692 88c70 22 444 132 621 7 0 1 90-725-617-724h-7c-566 3-670 433-689 629z" style="fill:#1c7f99"/>
    <path d="m2387 1206 24 5c0-1 34-127 26-282-10-205-88-369-226-474l-16 17c321 243 193 729 192 734zm-794-152 25 1a619 619 0 0 1 488-584l-5-22c-5 1-120 22-241 107a641 641 0 0 0-267 498z" style="fill:#166b7f"/>
    <path d="m1466 1068-277 192c243-157 604 75 604 75 181 143 288 129 288 129 299-3 455-227 455-227s-602-152-758-177c-156-26-312 8-312 8zm-296 205 19-13-19 13z" style="fill:#1f8aa3"/>
    <path d="M2084 451c0 38 156 38 156 0s-35-69-78-69-78 31-78 69z" style="fill:#1b788e"/>
  </g>
</svg>
