<svg xmlns="http://www.w3.org/2000/svg" xml:space="preserve" style="enable-background:new 0 0 4000 4000" viewBox="0 0 4000 4000">
  <style>
    .st80{fill:#1d1d1b}.st81{fill:#33b4ae}.st82{fill:#fff266}
  </style>
  <g id="Calque_2">
    <path d="M1514 951c-1-4 0-8 3-10l1-6c156-285 490-478 862-361 353 111 515 442 410 743l-1 2c4 2 5 8 0 10-265 129-636 192-934 116-259-66-479-249-346-490 1-2 3-4 5-4zm1256 373c-234 36-480-2-705-67-208-61-392-146-537-290-149 282 201 455 484 485 250 26 533-38 758-128zm-1017-214c129-248 324-472 653-506l-33-12c-362-113-679 77-833 350l-3 3c63 64 136 119 216 165zm415 156 2-2a872 872 0 0 0 260-649l-3-3h-1a809 809 0 0 0-396 166c-115 96-191 219-259 342 121 67 256 115 397 146zm398 49c107-240 80-490-123-687 15 121-17 240-64 354-43 103-95 216-193 289 125 26 254 41 380 44zm210-4c65-271-25-549-311-682 216 178 221 461 120 687 65 1 129 0 191-5z" class="st80"/>
    <path d="M1520 1074c0 18 4 36 5 54 0 3-6 5-8 1-7-18-7-38-5-56 0-5 8-4 8 1z" class="st80"/>
    <path d="M2065 1257c225 65 471 103 705 66-225 91-509 155-758 129-283-30-633-203-484-486 145 145 329 230 537 291zm-540-129c-1-18-5-36-5-54 0-5-8-6-8-1-2 18-2 39 5 56 2 4 8 2 8-1zm26 32c-10-21-13-42-10-64 1-5-8-5-9-1-5 24-2 47 9 69 3 6 12 2 10-4zm363 185c6 1 7-8 2-9-19-4-36-15-47-29-4-5-13-2-10 4 12 18 31 30 55 34zm389 8c5 1 5-5 1-6l-46-5c-6-1-6 6-1 6 16 3 31 4 46 5zm43-19c5 0 3-6-1-5-20 2-39 0-58-5-5-1-7 5-2 7 20 7 41 7 61 3z" class="st81"/>
    <path d="m2373 592 33 12c-329 34-524 258-653 506-80-46-153-101-216-164l3-4c154-273 471-463 833-350zm-743 265c3-3-2-8-5-5a80 80 0 0 0-34 50c-1 4 6 5 8 1 7-17 16-33 31-46zm6 27c2-4-6-6-8-2-5 12-12 24-19 35-3 5 4 9 8 5 8-12 14-24 19-38zm206-4c4-4-2-9-6-6a99 99 0 0 0-27 33c-2 4 5 6 7 3 8-10 16-21 26-30zm45-5c4-2 1-7-3-5-21 9-38 23-48 41-1 4 5 6 7 3 12-15 26-29 44-39zm67-155c5-2 1-8-3-6-16 5-27 13-35 25-3 4 3 6 5 4 9-10 21-18 33-23zm94-140c5 0 5-5 1-6-21-1-42 3-60 11-4 2-1 7 3 6 18-7 37-10 56-11z" class="st82"/>
    <path d="M1541 1096c-3 22 0 43 10 64 2 5-7 10-10 4-11-22-14-45-9-69 1-4 10-4 9 1zm84-245c3-2 8 2 5 5-16 14-24 30-31 47-2 4-9 3-8-1 3-20 16-37 34-51zm3 31c2-4 10-2 8 2-5 13-11 26-19 38-4 4-11-1-8-5 7-11 14-23 19-35zm208-8c4-3 10 2 6 6-10 9-18 20-26 30-2 3-9 1-7-3 6-13 16-23 27-33zm36 261c4 2 1 8-4 6-17-6-32-15-44-27-3-4 2-8 6-5 13 10 27 19 42 26zm12-265c4-2 7 3 3 5-18 10-32 24-44 39-2 3-8 1-7-3 10-18 27-32 48-41z" class="st80"/>
    <path d="M2426 612h1l3 3c5 228-79 482-260 649l-2 2c-141-32-276-80-397-146 68-123 144-246 259-342a811 811 0 0 1 396-166zm-558 529c5 2 8-4 4-6-15-7-29-16-42-26-4-3-9 1-6 5 12 12 27 21 44 27zm279-245c5 0 4-7-1-7-18 1-34 9-43 24-3 4 5 9 8 4 8-11 21-19 36-21zm101-195c4-2 1-8-4-6-21 9-38 20-53 35-3 3 3 7 6 5 15-14 32-25 51-34zm17-23c6-2 2-9-3-8-24 6-48 16-63 33-2 2 2 6 5 5 20-12 39-23 61-30zm-32 460c2-3-3-7-6-3-10 14-25 26-41 36-3 2 1 7 5 5 18-9 32-22 42-38zm29-9c2-4-4-7-7-4-12 17-28 33-45 47-3 3 2 9 6 6 19-14 33-31 46-49z" class="st81"/>
    <path d="M1916 1336c5 1 4 10-2 9-24-4-43-16-55-34-3-6 6-9 10-4 11 14 28 25 47 29zm35-622c4-1 8 4 4 6-13 5-25 13-33 23-3 2-8 0-6-4 8-12 20-20 35-25zm98-140c4 1 4 6-1 6-19 1-38 4-56 11-4 1-7-4-3-6 18-8 39-12 60-11zm98 315c4 0 5 7 0 7-15 2-28 10-36 21-3 5-11 0-8-4 9-15 25-23 44-24zm97-194c5-2 8 4 4 6-19 9-36 20-51 33-3 3-8-1-6-4 15-15 32-26 53-35zm18-25c5-1 9 6 3 8-23 7-41 18-61 30-4 1-8-3-5-5 15-17 39-27 63-33zm-35 465c3-3 8 0 6 3-10 16-24 30-42 39-4 1-8-4-5-6 17-10 31-22 41-36zm28-10c3-3 9 0 7 4-13 18-27 35-46 49-4 3-9-2-6-6 17-14 33-30 45-47zm49 222c4 1 4 7-1 6l-46-4c-5-1-5-8 1-7l46 5z" class="st80"/>
    <path d="M2444 628c202 197 229 447 122 687-126-3-255-18-380-45 98-72 150-186 193-289 47-113 79-232 65-353zm157 449c0-5-8-5-9-1l-5 42c-1 5 7 6 8 1l6-42zm13 22c0-4-6-4-6-1l-10 49c-1 3 4 4 5 1 5-16 9-32 11-49z" class="st82"/>
    <path d="M2345 1329c4-1 6 5 1 5-20 4-41 3-61-3-5-2-3-8 2-7 19 5 38 7 58 5zm247-253c1-4 9-4 9 1l-6 42c-1 5-9 4-9-1l6-42zm16 22c0-3 6-3 6 1-2 17-6 33-11 49-1 3-6 2-5-1l10-49zm47-201c0 4-7 4-8 1-3-15-8-29-14-43-2-4 5-8 8-3 9 13 15 30 14 45z" class="st80"/>
    <path d="M2776 1311c-62 4-126 6-191 5 101-226 95-509-120-687 286 133 376 411 311 682zm-129-413c1 3 8 3 8-1 1-15-5-32-14-45-3-5-11-1-8 3 6 14 11 28 14 43zm107 362 3-39c0-4-7-5-7-1l-2 40c0 4 6 4 6 0zm21-30c-1-5-9-4-10 0-1 18-3 34-9 51-1 4 6 6 8 2 8-17 13-35 11-53z" class="st81"/>
    <path d="m2757 1221-3 39c0 4-6 4-6 0l2-40c0-4 7-3 7 1zm8 9c1-4 9-5 10 0 2 18-3 36-11 53-2 4-9 2-8-2 7-17 8-33 9-51z" class="st80"/>
  </g>
</svg>
