<svg xmlns="http://www.w3.org/2000/svg" xml:space="preserve" style="enable-background:new 0 0 4000 4000" viewBox="0 0 4000 4000">
  <style>
    
  </style>
  <path id="Calque_2" d="M2159 1599c-1-3-3-7-7-11l-12-11c6 7 8 15 8 24a43 43 0 1 1-26-39l-14-9c-12-7-30-15-51-19l-7 6 15 6c7 3 8 8 5 13-3 4-9 8-11 6l-20-14a82 82 0 0 0 8 109c24 0 52-1 63-7 18-9 37-30 49-47v-7zm-566-62c-23 0-42-19-43-42a42 42 0 0 1 48-43l-1-1h-1l-1-1-1-1c-15-9-20-13-50-15h-7a83 83 0 0 0 8 128h4l5-1h1l5-2 3-1 3-1 5-2h1l2-2 3-1 9-5 3-1 4-3h1l1-1 1-1h1l1-1 1-1 1-1 1-1h-8zm-51-86c5-6 16 3 15 5s-6 7-9 8-9 5-11 4 0-12 5-17zm57 554-3-3c-10-7-22 4-19 11 2 4 7 6 12 6l9-3v-1c6-4 6-6 1-10zm-13-24c2 0 4-2 3-5 0-4-2-7-5-9-2-2-5-3-8-2-5 2-7 8-4 12l4 3c4 2 7 2 10 1zm-16-246c-11-7-37-19-94-19-20 0-40 4-56 9-8 1-15 5-22 11-6 7-16 14-18 18v2c1 1 4 2 9 2 20 1 35 4 50-3 12-5 23-4 50 7 11 5 35 8 51 7s12-9 20-13c4-1 7-4 10-8 4-3 6-7 6-7l-6-6zm-29 250c-7 4-2 15 3 20h1c4 3 7-4 11-7 9-8-9-17-15-13zm-94-9c0 2-2 8 1 10 3 1 5-3 7-4 1-7-5-3-8-6zm0-1v1-1zm99-14c-1-2-7-4-9-1 0 0-11 2-6 9 2 3 5 6 9 4 3 0 8-7 6-12zm21-20s-12 3-9 9c1 2 5 5 8 4 8-1 10-14 1-13zm24-17s-16 8-2 10l7-1c2-1 2-3 2-7l-7-2zm20-18-1 1c-3 1-10 7-5 12 3 2 7 0 11 1 1-4 0-14-5-14zm-228 79-2 7c2 4 8 5 10 2v-9c-3-1-5-2-8 0zm27-41c0-2-5-4-5-6l-1 1c-3-3-3 4-3 5 1 2 3 9 6 8s4-5 3-8zm19 29c4 1 6-2 5-5 0-3-4-4-5-7v1c-8-2-3 9 0 11zm-1-12h1-1zm53 18c-2-1-7 0-10 1v1c-2 1-3 4-1 5 2 2 8 1 10 0s5-6 1-7zm-56 16h-5l-3 3c-1 3 1 6 3 7 4 2 10 3 10-2 0-3-2-7-5-8zm78-20v1c-2 0-5 1-5 4s6 4 8 3c3 0 4-4 4-6-1-4-4-2-7-2zm40-27c3-1 6-6 6-9 0-2-1-3-3-4l-14 10c2 4 8 5 11 3zm17-16c2 1 3 3 6 2s6-6 6-9c1-5-1-5-5-4l-11 8c-1 2 2 2 4 3zm34-31-12 10 1 2c1 2 8 3 11 1 2-1 5-9 4-11l-4-2zm24-18c0-2-2-2-3-1l-11 11 2 1c3 1 4 1 6-1l5-5 2-3-1-2zm-121 90c2-1 3-3 3-6l-1-2c-5 2-10 4-15 4l4 4h9zm24-20-15 9c0 3 2 6 4 6 7 0 13-9 11-15zm-50 16c-6 0-11-1-15-3l2 7 6 2c2 0 1 1 3-1 2-1 4-2 4-5zm-24-7-12-8c1 3 0 6 2 9 0 1 4 4 6 4l4-4v-1zm-27-12 4-3v-2l-10-9c0 3-1 6 1 10 1 2 2 4 5 4zm-15-20 1-2-10-10v-1c2 4 1 9 4 12 2 2 3 2 5 1zm-10-13h1-1zm-6-6 1-2-6-8c0 2-4 8-1 10 1 2 5 2 6 0zm166 55c-1 1-4 5-3 7 3 3 9 1 11-1s0-10 0-10c-4 1-5 0-8 4zm-121 14-1 1c-6 5 2 11 8 9 0-5-3-9-7-10zm-22-16c-5 0-4 9 0 10 6 3 8-12 0-10zm-20-35c-5-5-7 3-5 7 5 6 7-2 5-7zm-18-25c-2-2-4-4-6-2-1 3 0 6 1 9 4-1 8-2 4-7h1zm85 89c-3 1-4 1-3 4s3 8 5 7 4-6 4-7-3-6-6-4zm34-1c-3 2-6 6-4 8l9 4c3 0 2-5 1-7s-4-6-6-5zm31-8c-2 1-8 7-6 10s4 6 7 7 7-5 7-7-4-11-8-10z" style="fill:#313cc4"/>
</svg>
